<mxfile host="app.diagrams.net" modified="2021-08-10T00:45:59.305Z" agent="5.0 (X11; Linux x86_64) AppleWebKit/537.36 (KHTML, like Gecko) Chrome/92.0.4515.131 Safari/537.36" etag="PThqU6uQH0B8SeuKz1i5" version="14.9.5" type="github">
  <diagram id="fvCgsu2ZJ-gSC0RxeoUe" name="Page-1">
    <mxGraphModel dx="1594" dy="688" grid="1" gridSize="10" guides="1" tooltips="1" connect="1" arrows="1" fold="1" page="1" pageScale="1" pageWidth="827" pageHeight="1169" background="#114B5F" math="0" shadow="0">
      <root>
        <mxCell id="0" />
        <mxCell id="1" parent="0" />
        <mxCell id="q15BCNpqaFZ_fGrZMNJ0-4" value="" style="edgeStyle=orthogonalEdgeStyle;rounded=0;orthogonalLoop=1;jettySize=auto;html=1;labelBackgroundColor=#114B5F;strokeColor=#028090;fontColor=#E4FDE1;" edge="1" parent="1" source="q15BCNpqaFZ_fGrZMNJ0-2">
          <mxGeometry relative="1" as="geometry">
            <mxPoint x="180" y="300" as="targetPoint" />
          </mxGeometry>
        </mxCell>
        <mxCell id="q15BCNpqaFZ_fGrZMNJ0-2" value="device" style="rounded=1;whiteSpace=wrap;html=1;fillColor=#F45B69;strokeColor=#028090;fontColor=#E4FDE1;" vertex="1" parent="1">
          <mxGeometry x="120" y="160" width="120" height="60" as="geometry" />
        </mxCell>
        <mxCell id="q15BCNpqaFZ_fGrZMNJ0-10" value="" style="edgeStyle=orthogonalEdgeStyle;rounded=0;orthogonalLoop=1;jettySize=auto;html=1;labelBackgroundColor=#114B5F;strokeColor=#028090;fontColor=#E4FDE1;" edge="1" parent="1" source="q15BCNpqaFZ_fGrZMNJ0-5" target="q15BCNpqaFZ_fGrZMNJ0-9">
          <mxGeometry relative="1" as="geometry" />
        </mxCell>
        <mxCell id="q15BCNpqaFZ_fGrZMNJ0-5" value="是否为可移动磁盘" style="rhombus;whiteSpace=wrap;html=1;fillColor=#F45B69;strokeColor=#028090;fontColor=#E4FDE1;" vertex="1" parent="1">
          <mxGeometry x="130" y="300" width="100" height="90" as="geometry" />
        </mxCell>
        <mxCell id="q15BCNpqaFZ_fGrZMNJ0-14" value="" style="edgeStyle=orthogonalEdgeStyle;rounded=0;orthogonalLoop=1;jettySize=auto;html=1;labelBackgroundColor=#114B5F;strokeColor=#028090;fontColor=#E4FDE1;" edge="1" parent="1" source="q15BCNpqaFZ_fGrZMNJ0-9" target="q15BCNpqaFZ_fGrZMNJ0-13">
          <mxGeometry relative="1" as="geometry" />
        </mxCell>
        <mxCell id="q15BCNpqaFZ_fGrZMNJ0-9" value="读取配置文件" style="rounded=1;whiteSpace=wrap;html=1;fillColor=#F45B69;strokeColor=#028090;fontColor=#E4FDE1;" vertex="1" parent="1">
          <mxGeometry x="120" y="450" width="120" height="60" as="geometry" />
        </mxCell>
        <mxCell id="q15BCNpqaFZ_fGrZMNJ0-16" value="" style="edgeStyle=orthogonalEdgeStyle;rounded=0;orthogonalLoop=1;jettySize=auto;html=1;labelBackgroundColor=#114B5F;strokeColor=#028090;fontColor=#E4FDE1;" edge="1" parent="1" source="q15BCNpqaFZ_fGrZMNJ0-13" target="q15BCNpqaFZ_fGrZMNJ0-15">
          <mxGeometry relative="1" as="geometry" />
        </mxCell>
        <mxCell id="q15BCNpqaFZ_fGrZMNJ0-32" value="" style="edgeStyle=orthogonalEdgeStyle;curved=0;rounded=1;sketch=0;orthogonalLoop=1;jettySize=auto;html=1;fontColor=#E4FDE1;strokeColor=#028090;fillColor=#F45B69;" edge="1" parent="1" source="q15BCNpqaFZ_fGrZMNJ0-13" target="q15BCNpqaFZ_fGrZMNJ0-30">
          <mxGeometry relative="1" as="geometry" />
        </mxCell>
        <mxCell id="q15BCNpqaFZ_fGrZMNJ0-13" value="匹配具体型号" style="rhombus;whiteSpace=wrap;html=1;fillColor=#F45B69;strokeColor=#028090;fontColor=#E4FDE1;" vertex="1" parent="1">
          <mxGeometry x="125" y="585" width="110" height="115" as="geometry" />
        </mxCell>
        <mxCell id="q15BCNpqaFZ_fGrZMNJ0-45" value="" style="edgeStyle=orthogonalEdgeStyle;curved=0;rounded=1;sketch=0;orthogonalLoop=1;jettySize=auto;html=1;fontColor=#E4FDE1;strokeColor=#028090;fillColor=#F45B69;entryX=0;entryY=0.5;entryDx=0;entryDy=0;" edge="1" parent="1" source="q15BCNpqaFZ_fGrZMNJ0-15" target="q15BCNpqaFZ_fGrZMNJ0-46">
          <mxGeometry relative="1" as="geometry">
            <mxPoint x="180" y="960" as="targetPoint" />
          </mxGeometry>
        </mxCell>
        <mxCell id="q15BCNpqaFZ_fGrZMNJ0-15" value="读取具体权限&amp;nbsp;" style="rounded=1;whiteSpace=wrap;html=1;fillColor=#F45B69;strokeColor=#028090;fontColor=#E4FDE1;" vertex="1" parent="1">
          <mxGeometry x="120" y="780" width="120" height="60" as="geometry" />
        </mxCell>
        <mxCell id="q15BCNpqaFZ_fGrZMNJ0-17" value="挂载&lt;br&gt;（bd_fs_mount）" style="whiteSpace=wrap;html=1;rounded=1;fillColor=#F45B69;strokeColor=#028090;fontColor=#E4FDE1;" vertex="1" parent="1">
          <mxGeometry x="120" y="1080" width="120" height="60" as="geometry" />
        </mxCell>
        <mxCell id="q15BCNpqaFZ_fGrZMNJ0-21" value="否" style="text;html=1;align=center;verticalAlign=middle;whiteSpace=wrap;rounded=0;fillColor=#fff2cc;strokeColor=#d6b656;" vertex="1" parent="1">
          <mxGeometry x="260" y="310" width="40" height="20" as="geometry" />
        </mxCell>
        <mxCell id="q15BCNpqaFZ_fGrZMNJ0-22" value="是" style="text;html=1;align=center;verticalAlign=middle;whiteSpace=wrap;rounded=0;fillColor=#fff2cc;strokeColor=#d6b656;" vertex="1" parent="1">
          <mxGeometry x="190" y="400" width="40" height="20" as="geometry" />
        </mxCell>
        <mxCell id="q15BCNpqaFZ_fGrZMNJ0-25" value="是" style="text;html=1;align=center;verticalAlign=middle;whiteSpace=wrap;rounded=0;fillColor=#fff2cc;strokeColor=#d6b656;" vertex="1" parent="1">
          <mxGeometry x="190" y="720" width="40" height="20" as="geometry" />
        </mxCell>
        <mxCell id="q15BCNpqaFZ_fGrZMNJ0-28" value="否" style="text;html=1;align=center;verticalAlign=middle;whiteSpace=wrap;rounded=0;fillColor=#fff2cc;strokeColor=#d6b656;" vertex="1" parent="1">
          <mxGeometry x="240" y="610" width="40" height="20" as="geometry" />
        </mxCell>
        <mxCell id="q15BCNpqaFZ_fGrZMNJ0-33" value="" style="edgeStyle=orthogonalEdgeStyle;curved=0;rounded=1;sketch=0;orthogonalLoop=1;jettySize=auto;html=1;fontColor=#E4FDE1;strokeColor=#028090;fillColor=#F45B69;" edge="1" parent="1" source="q15BCNpqaFZ_fGrZMNJ0-30" target="q15BCNpqaFZ_fGrZMNJ0-31">
          <mxGeometry relative="1" as="geometry" />
        </mxCell>
        <mxCell id="q15BCNpqaFZ_fGrZMNJ0-30" value="是否配置全局权限" style="rhombus;whiteSpace=wrap;html=1;rounded=0;sketch=0;fontColor=#E4FDE1;strokeColor=#028090;fillColor=#F45B69;" vertex="1" parent="1">
          <mxGeometry x="354" y="588.75" width="120" height="107.5" as="geometry" />
        </mxCell>
        <mxCell id="q15BCNpqaFZ_fGrZMNJ0-56" value="" style="edgeStyle=orthogonalEdgeStyle;curved=0;rounded=1;sketch=0;orthogonalLoop=1;jettySize=auto;html=1;fontColor=#E4FDE1;strokeColor=#028090;fillColor=#F45B69;" edge="1" parent="1" source="q15BCNpqaFZ_fGrZMNJ0-31" target="q15BCNpqaFZ_fGrZMNJ0-46">
          <mxGeometry relative="1" as="geometry">
            <mxPoint x="414" y="950" as="targetPoint" />
            <Array as="points">
              <mxPoint x="275" y="810" />
            </Array>
          </mxGeometry>
        </mxCell>
        <mxCell id="q15BCNpqaFZ_fGrZMNJ0-31" value="读取对应权限" style="rounded=1;whiteSpace=wrap;html=1;sketch=0;fontColor=#E4FDE1;strokeColor=#028090;fillColor=#F45B69;" vertex="1" parent="1">
          <mxGeometry x="354" y="780" width="120" height="60" as="geometry" />
        </mxCell>
        <mxCell id="q15BCNpqaFZ_fGrZMNJ0-34" value="" style="endArrow=classic;html=1;fontColor=#E4FDE1;strokeColor=#028090;fillColor=#F45B69;exitX=1;exitY=0.5;exitDx=0;exitDy=0;" edge="1" parent="1" source="q15BCNpqaFZ_fGrZMNJ0-5">
          <mxGeometry width="50" height="50" relative="1" as="geometry">
            <mxPoint x="400" y="480" as="sourcePoint" />
            <mxPoint x="590" y="650" as="targetPoint" />
            <Array as="points">
              <mxPoint x="590" y="345" />
            </Array>
          </mxGeometry>
        </mxCell>
        <mxCell id="q15BCNpqaFZ_fGrZMNJ0-35" value="赋予默认权限" style="rounded=1;whiteSpace=wrap;html=1;sketch=0;fontColor=#E4FDE1;strokeColor=#028090;fillColor=#F45B69;" vertex="1" parent="1">
          <mxGeometry x="530" y="980" width="120" height="60" as="geometry" />
        </mxCell>
        <mxCell id="q15BCNpqaFZ_fGrZMNJ0-36" value="" style="endArrow=classic;html=1;fontColor=#E4FDE1;strokeColor=#028090;fillColor=#F45B69;exitX=1;exitY=0.5;exitDx=0;exitDy=0;entryX=0.5;entryY=0;entryDx=0;entryDy=0;" edge="1" parent="1" source="q15BCNpqaFZ_fGrZMNJ0-30" target="q15BCNpqaFZ_fGrZMNJ0-35">
          <mxGeometry width="50" height="50" relative="1" as="geometry">
            <mxPoint x="560" y="645" as="sourcePoint" />
            <mxPoint x="610" y="595" as="targetPoint" />
            <Array as="points">
              <mxPoint x="590" y="643" />
            </Array>
          </mxGeometry>
        </mxCell>
        <mxCell id="q15BCNpqaFZ_fGrZMNJ0-38" value="" style="endArrow=classic;html=1;fontColor=#E4FDE1;strokeColor=#028090;fillColor=#F45B69;exitX=0.5;exitY=1;exitDx=0;exitDy=0;entryX=1;entryY=0.5;entryDx=0;entryDy=0;" edge="1" parent="1" source="q15BCNpqaFZ_fGrZMNJ0-35" target="q15BCNpqaFZ_fGrZMNJ0-17">
          <mxGeometry width="50" height="50" relative="1" as="geometry">
            <mxPoint x="600" y="930" as="sourcePoint" />
            <mxPoint x="240" y="950" as="targetPoint" />
            <Array as="points">
              <mxPoint x="590" y="1110" />
              <mxPoint x="470" y="1110" />
            </Array>
          </mxGeometry>
        </mxCell>
        <mxCell id="q15BCNpqaFZ_fGrZMNJ0-39" value="是" style="text;html=1;align=center;verticalAlign=middle;whiteSpace=wrap;rounded=0;fillColor=#fff2cc;strokeColor=#d6b656;" vertex="1" parent="1">
          <mxGeometry x="370" y="720" width="40" height="20" as="geometry" />
        </mxCell>
        <mxCell id="q15BCNpqaFZ_fGrZMNJ0-40" value="否" style="text;html=1;align=center;verticalAlign=middle;whiteSpace=wrap;rounded=0;fillColor=#fff2cc;strokeColor=#d6b656;" vertex="1" parent="1">
          <mxGeometry x="480" y="610" width="40" height="20" as="geometry" />
        </mxCell>
        <mxCell id="q15BCNpqaFZ_fGrZMNJ0-57" value="" style="edgeStyle=orthogonalEdgeStyle;curved=0;rounded=1;sketch=0;orthogonalLoop=1;jettySize=auto;html=1;fontColor=#E4FDE1;strokeColor=#028090;fillColor=#F45B69;" edge="1" parent="1" source="q15BCNpqaFZ_fGrZMNJ0-46" target="q15BCNpqaFZ_fGrZMNJ0-17">
          <mxGeometry relative="1" as="geometry" />
        </mxCell>
        <mxCell id="q15BCNpqaFZ_fGrZMNJ0-59" value="" style="edgeStyle=orthogonalEdgeStyle;curved=0;rounded=1;sketch=0;orthogonalLoop=1;jettySize=auto;html=1;fontColor=#E4FDE1;strokeColor=#028090;fillColor=#F45B69;" edge="1" parent="1" source="q15BCNpqaFZ_fGrZMNJ0-46">
          <mxGeometry relative="1" as="geometry">
            <mxPoint x="590" y="960" as="targetPoint" />
          </mxGeometry>
        </mxCell>
        <mxCell id="q15BCNpqaFZ_fGrZMNJ0-46" value="权限是否正确" style="rhombus;whiteSpace=wrap;html=1;rounded=1;fontColor=#E4FDE1;strokeColor=#028090;fillColor=#F45B69;" vertex="1" parent="1">
          <mxGeometry x="220" y="910" width="110" height="100" as="geometry" />
        </mxCell>
        <mxCell id="q15BCNpqaFZ_fGrZMNJ0-60" value="是" style="text;html=1;align=center;verticalAlign=middle;whiteSpace=wrap;rounded=0;fillColor=#fff2cc;strokeColor=#d6b656;" vertex="1" parent="1">
          <mxGeometry x="280" y="1020" width="40" height="20" as="geometry" />
        </mxCell>
        <mxCell id="q15BCNpqaFZ_fGrZMNJ0-61" value="否" style="text;html=1;align=center;verticalAlign=middle;whiteSpace=wrap;rounded=0;fillColor=#fff2cc;strokeColor=#d6b656;" vertex="1" parent="1">
          <mxGeometry x="330" y="930" width="40" height="20" as="geometry" />
        </mxCell>
      </root>
    </mxGraphModel>
  </diagram>
</mxfile>
